<svg width="15" height="15" viewBox="0 0 15 15" fill="none" xmlns="http://www.w3.org/2000/svg">
<path d="M5.6095 0.511353H2.172C1.7576 0.511353 1.36017 0.675973 1.06714 0.968998C0.774117 1.26202 0.609497 1.65945 0.609497 2.07385V5.51135C0.609497 5.92575 0.774117 6.32318 1.06714 6.61621C1.36017 6.90923 1.7576 7.07385 2.172 7.07385H5.6095C6.0239 7.07385 6.42133 6.90923 6.71435 6.61621C7.00738 6.32318 7.172 5.92575 7.172 5.51135V2.07385C7.172 1.65945 7.00738 1.26202 6.71435 0.968998C6.42133 0.675973 6.0239 0.511353 5.6095 0.511353ZM5.297 5.19885H2.4845V2.38635H5.297V5.19885ZM13.422 0.511353H9.9845C9.5701 0.511353 9.17267 0.675973 8.87964 0.968998C8.58662 1.26202 8.422 1.65945 8.422 2.07385V5.51135C8.422 5.92575 8.58662 6.32318 8.87964 6.61621C9.17267 6.90923 9.5701 7.07385 9.9845 7.07385H13.422C13.8364 7.07385 14.2338 6.90923 14.5269 6.61621C14.8199 6.32318 14.9845 5.92575 14.9845 5.51135V2.07385C14.9845 1.65945 14.8199 1.26202 14.5269 0.968998C14.2338 0.675973 13.8364 0.511353 13.422 0.511353ZM13.1095 5.19885H10.297V2.38635H13.1095V5.19885ZM5.6095 8.32385H2.172C1.7576 8.32385 1.36017 8.48847 1.06714 8.7815C0.774117 9.07452 0.609497 9.47195 0.609497 9.88635V13.3239C0.609497 13.7383 0.774117 14.1357 1.06714 14.4287C1.36017 14.7217 1.7576 14.8864 2.172 14.8864H5.6095C6.0239 14.8864 6.42133 14.7217 6.71435 14.4287C7.00738 14.1357 7.172 13.7383 7.172 13.3239V9.88635C7.172 9.47195 7.00738 9.07452 6.71435 8.7815C6.42133 8.48847 6.0239 8.32385 5.6095 8.32385ZM5.297 13.0114H2.4845V10.1989H5.297V13.0114ZM13.422 8.32385H9.9845C9.5701 8.32385 9.17267 8.48847 8.87964 8.7815C8.58662 9.07452 8.422 9.47195 8.422 9.88635V13.3239C8.422 13.7383 8.58662 14.1357 8.87964 14.4287C9.17267 14.7217 9.5701 14.8864 9.9845 14.8864H13.422C13.8364 14.8864 14.2338 14.7217 14.5269 14.4287C14.8199 14.1357 14.9845 13.7383 14.9845 13.3239V9.88635C14.9845 9.47195 14.8199 9.07452 14.5269 8.7815C14.2338 8.48847 13.8364 8.32385 13.422 8.32385ZM13.1095 13.0114H10.297V10.1989H13.1095V13.0114Z" fill="#006AFF"/>
</svg>
