<svg width="16" height="16" viewBox="0 0 16 16" fill="none" xmlns="http://www.w3.org/2000/svg">
<path d="M8.9375 14.875C8.9375 15.1236 9.03627 15.3621 9.21209 15.5379C9.3879 15.7137 9.62636 15.8125 9.875 15.8125H14.25C14.6644 15.8125 15.0618 15.6479 15.3549 15.3549C15.6479 15.0618 15.8125 14.6644 15.8125 14.25V1.75C15.8125 1.3356 15.6479 0.938171 15.3549 0.645146C15.0618 0.35212 14.6644 0.1875 14.25 0.1875H9.875C9.62636 0.1875 9.3879 0.286272 9.21209 0.462087C9.03627 0.637903 8.9375 0.87636 8.9375 1.125C8.9375 1.37364 9.03627 1.6121 9.21209 1.78791C9.3879 1.96373 9.62636 2.0625 9.875 2.0625H13.9375V13.9375H9.875C9.62636 13.9375 9.3879 14.0363 9.21209 14.2121C9.03627 14.3879 8.9375 14.6264 8.9375 14.875ZM0.46172 7.33672L3.58672 4.21172C3.76284 4.0356 4.00171 3.93665 4.25078 3.93665C4.49985 3.93665 4.73872 4.0356 4.91484 4.21172C5.09096 4.38784 5.18991 4.62671 5.18991 4.87578C5.18991 5.12485 5.09096 5.36372 4.91484 5.53984L3.39063 7.0625H9.875C10.1236 7.0625 10.3621 7.16127 10.5379 7.33709C10.7137 7.5129 10.8125 7.75136 10.8125 8C10.8125 8.24864 10.7137 8.4871 10.5379 8.66291C10.3621 8.83873 10.1236 8.9375 9.875 8.9375H3.39063L4.91563 10.4617C5.09175 10.6378 5.19069 10.8767 5.19069 11.1258C5.19069 11.3749 5.09175 11.6137 4.91563 11.7898C4.73951 11.966 4.50064 12.0649 4.25156 12.0649C4.00249 12.0649 3.76362 11.966 3.5875 11.7898L0.462502 8.66484C0.375051 8.5778 0.305643 8.47435 0.258258 8.36042C0.210874 8.24649 0.186444 8.12433 0.186372 8.00094C0.186298 7.87755 0.210585 7.75537 0.257835 7.64138C0.305085 7.5274 0.374372 7.42387 0.46172 7.33672Z" fill="#A8A8BD"/>
</svg>
