<svg width="17" height="22" viewBox="0 0 17 22" fill="none" xmlns="http://www.w3.org/2000/svg">
<path d="M8.8 3.6C8.11044 3.6 7.44912 3.87393 6.96152 4.36152C6.47393 4.84912 6.2 5.51044 6.2 6.2C6.2 6.88956 6.47393 7.55088 6.96152 8.03848C7.44912 8.52607 8.11044 8.8 8.8 8.8C9.48956 8.8 10.1509 8.52607 10.6385 8.03848C11.1261 7.55088 11.4 6.88956 11.4 6.2C11.4 5.51044 11.1261 4.84912 10.6385 4.36152C10.1509 3.87393 9.48956 3.6 8.8 3.6ZM7.5 6.2C7.5 5.85522 7.63696 5.52456 7.88076 5.28076C8.12456 5.03696 8.45522 4.9 8.8 4.9C9.14478 4.9 9.47544 5.03696 9.71924 5.28076C9.96304 5.52456 10.1 5.85522 10.1 6.2C10.1 6.54478 9.96304 6.87544 9.71924 7.11924C9.47544 7.36304 9.14478 7.5 8.8 7.5C8.45522 7.5 8.12456 7.36304 7.88076 7.11924C7.63696 6.87544 7.5 6.54478 7.5 6.2ZM4.25 17.25C4.07761 17.25 3.91228 17.3185 3.79038 17.4404C3.66848 17.5623 3.6 17.7276 3.6 17.9C3.6 18.0724 3.66848 18.2377 3.79038 18.3596C3.91228 18.4815 4.07761 18.55 4.25 18.55H13.35C13.5224 18.55 13.6877 18.4815 13.8096 18.3596C13.9315 18.2377 14 18.0724 14 17.9C14 17.7276 13.9315 17.5623 13.8096 17.4404C13.6877 17.3185 13.5224 17.25 13.35 17.25H4.25ZM1 3.6C1 2.91044 1.27393 2.24912 1.76152 1.76152C2.24912 1.27393 2.91044 1 3.6 1H14C14.6896 1 15.3509 1.27393 15.8385 1.76152C16.3261 2.24912 16.6 2.91044 16.6 3.6V19.2C16.6 19.8896 16.3261 20.5509 15.8385 21.0385C15.3509 21.5261 14.6896 21.8 14 21.8H3.6C2.91044 21.8 2.24912 21.5261 1.76152 21.0385C1.27393 20.5509 1 19.8896 1 19.2V3.6ZM14 2.3H3.6C3.25522 2.3 2.92456 2.43696 2.68076 2.68076C2.43696 2.92456 2.3 3.25522 2.3 3.6V14H4.9V11.4C4.9 11.0552 5.03696 10.7246 5.28076 10.4808C5.52456 10.237 5.85522 10.1 6.2 10.1H11.4C11.7448 10.1 12.0754 10.237 12.3192 10.4808C12.563 10.7246 12.7 11.0552 12.7 11.4V14H15.3V3.6C15.3 3.25522 15.163 2.92456 14.9192 2.68076C14.6754 2.43696 14.3448 2.3 14 2.3ZM11.4 11.4H6.2V14H11.4V11.4ZM2.3 15.3V19.2C2.3 19.5448 2.43696 19.8754 2.68076 20.1192C2.92456 20.363 3.25522 20.5 3.6 20.5H14C14.3448 20.5 14.6754 20.363 14.9192 20.1192C15.163 19.8754 15.3 19.5448 15.3 19.2V15.3H2.3Z" fill="#A8A8BD" stroke="#A8A8BD" stroke-width="0.3"/>
</svg>
