<svg width="18" height="18" viewBox="0 0 18 18" fill="none" xmlns="http://www.w3.org/2000/svg">
<path d="M8.99998 4.93751C8.19649 4.93751 7.41105 5.17577 6.74298 5.62216C6.0749 6.06856 5.5542 6.70303 5.24672 7.44536C4.93924 8.18768 4.85879 9.00452 5.01554 9.79256C5.17229 10.5806 5.55921 11.3045 6.12736 11.8726C6.69551 12.4408 7.41938 12.8277 8.20743 12.9845C8.99547 13.1412 9.81231 13.0608 10.5546 12.7533C11.297 12.4458 11.9314 11.9251 12.3778 11.257C12.8242 10.5889 13.0625 9.8035 13.0625 9.00001C13.0612 7.92295 12.6328 6.89036 11.8712 6.12876C11.1096 5.36716 10.077 4.93875 8.99998 4.93751ZM8.99998 11.1875C8.56733 11.1875 8.1444 11.0592 7.78467 10.8188C7.42494 10.5785 7.14456 10.2368 6.97899 9.83713C6.81343 9.43742 6.77011 8.99758 6.85451 8.57325C6.93892 8.14892 7.14726 7.75914 7.45319 7.45321C7.75911 7.14729 8.14889 6.93895 8.57322 6.85454C8.99755 6.77014 9.43739 6.81346 9.8371 6.97902C10.2368 7.14459 10.5785 7.42497 10.8188 7.7847C11.0592 8.14443 11.1875 8.56736 11.1875 9.00001C11.1875 9.58017 10.957 10.1366 10.5468 10.5468C10.1365 10.957 9.58014 11.1875 8.99998 11.1875ZM16.1875 9.06173V8.93829L17.2812 7.57032C17.373 7.4557 17.4366 7.32111 17.4669 7.1774C17.4972 7.0337 17.4932 6.88489 17.4555 6.74298C17.2581 5.99853 16.9631 5.28347 16.5781 4.61642C16.5039 4.48921 16.4009 4.38127 16.2772 4.30132C16.1536 4.22138 16.0128 4.17168 15.8664 4.15626L14.1258 3.96095L14.039 3.87423L13.8437 2.13282C13.8282 1.98653 13.7784 1.84594 13.6985 1.72243C13.6186 1.59893 13.5107 1.49597 13.3836 1.42189C12.7165 1.0357 12.0011 0.739638 11.2562 0.541416C11.1142 0.504181 10.9654 0.50083 10.8218 0.531634C10.6783 0.562437 10.5439 0.626534 10.4297 0.71876L9.0617 1.81251H8.93826L7.57029 0.71876C7.45567 0.626949 7.32108 0.563349 7.17738 0.533088C7.03367 0.502827 6.88486 0.50675 6.74295 0.544542C5.99831 0.743144 5.28324 1.03947 4.61639 1.42579C4.48968 1.49957 4.38204 1.60204 4.30213 1.72497C4.22221 1.8479 4.17224 1.98786 4.15623 2.1336L3.96092 3.87423L3.8742 3.96095L2.13279 4.15626C1.9865 4.1718 1.84591 4.22155 1.72241 4.30149C1.5989 4.38143 1.49594 4.48931 1.42186 4.61642C1.03676 5.28368 0.741746 5.99902 0.544512 6.74376C0.506849 6.88556 0.502992 7.03421 0.533251 7.17777C0.56351 7.32133 0.62704 7.45579 0.71873 7.57032L1.81248 8.93829V9.06173L0.71873 10.4297C0.626919 10.5443 0.563319 10.6789 0.533058 10.8226C0.502797 10.9663 0.50672 11.1151 0.544512 11.257C0.743361 12.0017 1.03995 12.7168 1.42654 13.3836C1.50024 13.5102 1.60259 13.6178 1.72538 13.6977C1.84816 13.7776 1.98797 13.8276 2.13357 13.8438L3.8742 14.0375L3.96092 14.1242L4.15623 15.8672C4.17177 16.0135 4.22152 16.1541 4.30146 16.2776C4.3814 16.4011 4.48928 16.504 4.61639 16.5781C5.28349 16.9643 5.99883 17.2604 6.74373 17.4586C6.88577 17.4958 7.03457 17.4992 7.17814 17.4684C7.32171 17.4376 7.45603 17.3735 7.57029 17.2813L8.93826 16.1875H9.0617L10.4297 17.2813C10.5443 17.3731 10.6789 17.4367 10.8226 17.4669C10.9663 17.4972 11.1151 17.4933 11.257 17.4555C12.0015 17.2581 12.7165 16.9631 13.3836 16.5781C13.5106 16.5045 13.6185 16.4021 13.6987 16.2792C13.7789 16.1563 13.8291 16.0162 13.8453 15.8703L14.039 14.1297L14.1258 14.043L15.8672 13.8438C16.0131 13.8276 16.1531 13.7774 16.2761 13.6972C16.399 13.617 16.5014 13.509 16.575 13.382C16.9612 12.7149 17.2572 11.9996 17.4555 11.2547C17.4929 11.1131 17.4966 10.9648 17.4663 10.8215C17.4361 10.6782 17.3727 10.5441 17.2812 10.4297L16.1875 9.06173ZM14.3031 8.6797C14.3156 8.89306 14.3156 9.10696 14.3031 9.32032C14.2891 9.55226 14.3618 9.78111 14.507 9.96251L15.5101 11.2164C15.4154 11.4967 15.3024 11.7705 15.1719 12.0359L13.5758 12.2133C13.3447 12.2397 13.1317 12.3511 12.9781 12.5258C12.8362 12.6857 12.6849 12.837 12.525 12.9789C12.3503 13.1325 12.2389 13.3455 12.2125 13.5766L12.0359 15.1719C11.7705 15.303 11.4967 15.4165 11.2164 15.5117L9.96248 14.5078C9.79607 14.375 9.58943 14.3029 9.37654 14.3031C9.35779 14.3031 9.33904 14.3031 9.32029 14.3031C9.10694 14.3156 8.89303 14.3156 8.67967 14.3031C8.44789 14.2894 8.2192 14.3617 8.03748 14.5063L6.78357 15.5102C6.50328 15.4155 6.22952 15.3025 5.96404 15.1719L5.7867 13.5758C5.76028 13.3447 5.6489 13.1317 5.4742 12.9781C5.31431 12.8362 5.163 12.6849 5.02107 12.525C4.86752 12.3503 4.6545 12.2389 4.42342 12.2125L2.82811 12.0359C2.69699 11.7705 2.58346 11.4967 2.48826 11.2164L3.49139 9.96251C3.63659 9.78111 3.70925 9.55226 3.69529 9.32032C3.68279 9.10696 3.68279 8.89306 3.69529 8.6797C3.70925 8.44776 3.63659 8.21891 3.49139 8.03751L2.48982 6.7836C2.58452 6.50331 2.69752 6.22955 2.82811 5.96407L4.4242 5.78673C4.65529 5.76031 4.8683 5.64893 5.02186 5.47423C5.16378 5.31433 5.31509 5.16303 5.47498 5.0211C5.64968 4.86755 5.76106 4.65453 5.78748 4.42345L5.96404 2.82814C6.22948 2.69702 6.50325 2.58349 6.78357 2.48829L8.03748 3.4922C8.2192 3.63672 8.44789 3.70905 8.67967 3.69532C8.89303 3.68282 9.10694 3.68282 9.32029 3.69532C9.55213 3.7095 9.78097 3.63712 9.96248 3.4922L11.2164 2.48829C11.4967 2.58349 11.7705 2.69702 12.0359 2.82814L12.2133 4.42423C12.2397 4.65531 12.3511 4.86833 12.5258 5.02188C12.6857 5.16381 12.837 5.31512 12.9789 5.47501C13.1324 5.64971 13.3455 5.76109 13.5765 5.78751L15.1719 5.96407C15.303 6.22951 15.4165 6.50327 15.5117 6.7836L14.5086 8.03751C14.3628 8.21868 14.2896 8.44756 14.3031 8.6797Z" fill="#A8A8BD"/>
</svg>
