<svg width="16" height="20" viewBox="0 0 16 20" fill="none" xmlns="http://www.w3.org/2000/svg">
<path d="M13.438 19.937H2.56201C1.89897 19.937 1.26309 19.6736 0.794245 19.2048C0.325404 18.7359 0.0620117 18.1 0.0620117 17.437V16.61C0.0620117 12.641 3.62301 9.41 8.00001 9.41C12.377 9.41 15.938 12.639 15.938 16.61V17.437C15.938 18.1 15.6746 18.7359 15.2058 19.2048C14.7369 19.6736 14.1011 19.937 13.438 19.937ZM8.00001 10.412C4.17401 10.412 1.06201 13.192 1.06201 16.612V17.439C1.06201 17.8368 1.22005 18.2184 1.50135 18.4997C1.78266 18.781 2.16419 18.939 2.56201 18.939H13.438C13.8358 18.939 14.2174 18.781 14.4987 18.4997C14.78 18.2184 14.938 17.8368 14.938 17.439V16.61C14.938 13.192 11.826 10.412 8.00001 10.412ZM8.00001 7.91101C7.22388 7.9112 6.46511 7.68123 5.81968 7.25018C5.17425 6.81912 4.67115 6.20635 4.374 5.48935C4.07684 4.77235 3.99899 3.98333 4.15029 3.22208C4.30158 2.46084 4.67523 1.76155 5.22397 1.21267C5.77271 0.663791 6.4719 0.289967 7.23311 0.138477C7.99432 -0.0130124 8.78336 0.0646375 9.50043 0.361606C10.2175 0.658575 10.8304 1.16152 11.2616 1.80684C11.6928 2.45216 11.923 3.21087 11.923 3.98701C11.9222 5.0273 11.5087 6.02477 10.7732 6.76046C10.0377 7.49615 9.0403 7.90995 8.00001 7.91101ZM8.00001 1.06401C7.42161 1.06381 6.85615 1.23515 6.37515 1.55637C5.89415 1.87759 5.51921 2.33424 5.29778 2.86858C5.07634 3.40291 5.01836 3.99091 5.13115 4.5582C5.24394 5.1255 5.52244 5.6466 5.93143 6.05559C6.34042 6.46457 6.86152 6.74308 7.42881 6.85587C7.99611 6.96866 8.58411 6.91067 9.11844 6.68924C9.65277 6.4678 10.1094 6.09287 10.4306 5.61187C10.7519 5.13087 10.9232 4.5654 10.923 3.98701C10.9222 3.21202 10.614 2.46901 10.066 1.92101C9.51801 1.37301 8.775 1.0648 8.00001 1.06401Z" fill="#A8A8BD"/>
</svg>
